<?xml version="1.0" standalone="no"?><!DOCTYPE svg PUBLIC "-//W3C//DTD SVG 1.1//EN" "http://www.w3.org/Graphics/SVG/1.1/DTD/svg11.dtd"><svg t="1761140779140" class="icon" viewBox="0 0 1024 1024" version="1.1" xmlns="http://www.w3.org/2000/svg" p-id="28996" xmlns:xlink="http://www.w3.org/1999/xlink" width="200" height="200"><path d="M976.799601 1022.559121c-25.471018 2.231038-16.593346 0.09296-46.47996 0h-232.399801c-29.886614 0.09296-58.75067 0-92.95992 0-29.886614 0-46.57292-63.073306-46.47996-92.95992v-278.87976c0-62.143707 30.351414-92.95992 92.95992-92.95992h278.879761c62.143707 0 92.95992 30.351414 92.95992 92.95992v278.87976c0.09296 29.886614-16.732786 90.310562-46.47996 92.95992z m0-418.31964c-10.550951-10.550951-31.559893-0.09296-46.47996 0h-278.879761c-14.920067-0.09296-35.929009 35.929009-46.47996 46.47996-10.550951 10.550951-0.09296 31.559893 0 46.47996v232.3998c0 31.327493 15.245427 46.47996 46.47996 46.47996h278.879761c14.920067 0.09296 35.929009 10.550951 46.47996 0 10.550951-10.550951 0.09296-31.559893 0-46.47996v-278.87976c0.09296-14.920067 10.550951-35.929009 0-46.47996z m-37.183968-187.081839h-260.287777c-23.890699 0.04648-7.483274 1.812718-37.183968 0-23.84422-1.440879-37.230448-50.291317-37.183968-74.135537V120.615496C604.95992 71.067859 629.222459 46.47996 679.327856 46.47996h223.103808c49.733557 0 74.367936 24.216059 74.367937 74.135536V343.022105c0.04648 23.84422-13.293269 74.135536-37.183968 74.135537z m-11.480551-286.409514c0.09296-11.06223-26.772457-26.586537-34.62757-34.395171h-207.951341c-4.090236 0-3.300077 0.32536-1.766239 0.60424-9.203032 0.743679-32.954292 23.28646-32.907811 33.790931v206.278062c0 23.1935 11.38759 34.39517 34.67405 34.395171h207.951341c11.10871 0.04648 26.772457-26.586537 34.62757-34.395171V130.748128z m-244.34515-33.790931c0.51128-0.04648 1.347919-0.697199 1.766239-0.60424 6.879034 1.626799 0.929599 1.161999-1.766239 0.60424zM419.04008 1022.559121c-25.471018 2.231038-16.593346 0.09296-46.47996 0H140.16032c-29.886614 0.09296-58.75067 0-92.959921 0-29.886614 0-46.57292-63.073306-46.47996-92.95992v-278.87976c0-62.143707 30.351414-92.95992 92.95992-92.95992h278.879761c62.143707 0 92.95992 30.351414 92.95992 92.95992v278.87976c0.09296 29.886614-16.732786 90.310562-46.47996 92.95992z m0-418.31964c-10.550951-10.550951-31.559893-0.09296-46.47996 0H93.680359c-14.920067-0.09296-35.929009 35.929009-46.47996 46.47996-10.550951 10.550951-0.09296 31.559893 0 46.47996v232.3998c0 31.327493 15.245427 46.47996 46.47996 46.47996h278.879761c14.920067 0.09296 35.929009 10.550951 46.47996 0 10.550951-10.550951 0.09296-31.559893 0-46.47996v-278.87976c0.09296-14.920067 10.550951-35.929009 0-46.47996z m0-139.43988c-47.270119 0-16.593346 0.09296-46.47996 0H93.680359c-29.886614 0.09296-9.388952 2.231038-46.47996 0-29.840134-1.812718-46.57292-63.073306-46.47996-92.959921V92.95992C0.720439 30.816214 31.071853 0 93.680359 0h278.879761c62.143707 0 92.95992 30.351414 92.95992 92.95992v278.87976c0.09296 29.886614-16.593346 92.95992-46.47996 92.959921z m0-371.839681c0.09296-14.920067-35.929009-35.929009-46.47996-46.47996H93.680359c-5.717035-0.04648-4.926876 0.4648-2.556397 0.883119C78.667332 48.664518 47.10744 78.830012 47.200399 92.95992v278.87976c0 31.327493 15.245427 46.47996 46.47996 46.479961h278.879761c14.920067 0.09296 35.929009-35.929009 46.47996-46.479961V92.95992z m-327.916118-45.596841C91.821161 47.316599 93.1226 46.34052 93.680359 46.47996c8.970632 2.138078 1.208479 1.580319-2.556397 0.883119z" fill="#ffffff" p-id="28997"></path></svg>