<?xml version="1.0" standalone="no"?><!DOCTYPE svg PUBLIC "-//W3C//DTD SVG 1.1//EN" "http://www.w3.org/Graphics/SVG/1.1/DTD/svg11.dtd"><svg t="1762322306107" class="icon" viewBox="0 0 1024 1024" version="1.1" xmlns="http://www.w3.org/2000/svg" p-id="22304" xmlns:xlink="http://www.w3.org/1999/xlink" width="200" height="200"><path d="M512.1 63.9C264.6 63.9 64 264.6 64 512s200.6 448.1 448.1 448.1S960.2 759.5 960.2 512 759.6 63.9 512.1 63.9z m260.3 708.4c-33.8 33.8-73.2 60.4-117 78.9-45.3 19.2-93.5 28.9-143.3 28.9s-97.9-9.7-143.3-28.9c-43.8-18.5-83.2-45.1-117-78.9-33.8-33.8-60.4-73.2-78.9-117C153.7 610 144 561.8 144 512s9.7-97.9 28.9-143.3c18.5-43.8 45.1-83.2 78.9-117 33.8-33.8 73.2-60.4 117-78.9 45.3-19.2 93.5-28.9 143.3-28.9s97.9 9.7 143.3 28.9c43.8 18.5 83.2 45.1 117 78.9 33.8 33.8 60.4 73.2 78.9 117 19.2 45.3 28.9 93.5 28.9 143.3s-9.7 97.9-28.9 143.3c-18.5 43.8-45.1 83.2-78.9 117z" p-id="22305" fill="#8a8a8a"></path><path d="M602.7 441c1.9 0 3.8 0 5.7 0.1-11.9-66.8-79.3-118-160.7-118-89.8 0-162.6 62.3-162.6 139.2 0 46.5 26.7 87.7 67.7 113l-14.2 52 59.4-32.4c15.7 4.3 32.4 6.6 49.7 6.6h2c-2.7-9.5-4.1-19.5-4.1-29.7 0-72.2 70.3-130.8 157.1-130.8z m-98.5-52.1c13.1 0 23.7 10.6 23.7 23.7s-10.6 23.7-23.7 23.7-23.7-10.6-23.7-23.7 10.6-23.7 23.7-23.7z m-115.7 47.4c-13.1 0-23.7-10.6-23.7-23.7s10.6-23.7 23.7-23.7 23.7 10.6 23.7 23.7c0.1 13.1-10.6 23.7-23.7 23.7z" p-id="22306" fill="#8a8a8a"></path><path d="M600.4 453.9c-76.9 0-139.2 52-139.2 116.2s62.3 116.2 139.2 116.2c17.1 0 33.5-2.6 48.7-7.3l49.2 27.5-11.3-45.4c32-21.3 52.5-54.1 52.5-90.9 0-64.3-62.3-116.3-139.1-116.3z m-50 99.9c-11 0-20-8.9-20-20s8.9-20 20-20 20 8.9 20 20-8.9 20-20 20z m91.5 0c-11 0-20-8.9-20-20s8.9-20 20-20 20 8.9 20 20-8.9 20-20 20z" p-id="22307" fill="#8a8a8a"></path></svg>