<?xml version="1.0" standalone="no"?><!DOCTYPE svg PUBLIC "-//W3C//DTD SVG 1.1//EN" "http://www.w3.org/Graphics/SVG/1.1/DTD/svg11.dtd"><svg t="1761221543646" class="icon" viewBox="0 0 1024 1024" version="1.1" xmlns="http://www.w3.org/2000/svg" p-id="1732" xmlns:xlink="http://www.w3.org/1999/xlink" width="200" height="200"><path d="M419.4816 640.8704m-313.2928 0a313.2928 313.2928 0 1 0 626.5856 0 313.2928 313.2928 0 1 0-626.5856 0Z" fill="#92B705" p-id="1733"></path><path d="M419.4816 327.68a312.32 312.32 0 0 0-221.5936 91.7504v9.9328a435.2 435.2 0 0 0 435.2 435.2h6.5024A313.1904 313.1904 0 0 0 419.4816 327.68z" fill="#B1D952" p-id="1734"></path><path d="M419.4816 969.5232a328.6528 328.6528 0 1 1 328.6528-328.6528 329.0112 329.0112 0 0 1-328.6528 328.6528z m0-626.4832a297.9328 297.9328 0 1 0 297.9328 297.8816A298.24 298.24 0 0 0 419.4816 343.04z" fill="#042A76" p-id="1735"></path><path d="M475.136 877.9776a281.9072 281.9072 0 0 1-269.1072-365.056 248.8832 248.8832 0 0 0 292.096 364.0832c-7.5776 0.6144-15.2576 0.9728-22.9888 0.9728z" fill="#D2DCFD" p-id="1736"></path><path d="M832.2048 934.8608a14.336 14.336 0 0 0 14.08-11.6736c5.632-29.0304 23.2448-80.896 34.048-99.5328a327.68 327.68 0 0 0 37.4784-147.5584c0-138.496-89.7024-205.056-89.7024-304.2304 0-122.5728 24.9856-141.8752 24.9856-197.4784 0-60.2112-29.0304-85.76-52.48-96.5632a70.2464 70.2464 0 0 0-58.4704 0c-23.4496 10.8032-52.48 36.352-52.48 96.5632 0 55.6032 24.9344 74.9056 24.9344 197.4784 0 99.1744-89.6512 165.7344-89.6512 304.2304a327.68 327.68 0 0 0 37.4784 147.5584c10.8032 18.6368 28.416 70.5024 34.048 99.5328a14.336 14.336 0 0 0 14.08 11.6736z" fill="#FD8F00" p-id="1737"></path><path d="M853.0944 174.3872c0-60.2112-29.0304-85.76-52.48-96.5632a70.2464 70.2464 0 0 0-58.4704 0c-23.4496 10.8032-52.48 36.352-52.48 96.5632 0 55.6032 24.9344 74.9056 24.9344 197.4784 0 99.1744-89.6512 165.7344-89.6512 304.2304a327.68 327.68 0 0 0 37.4784 147.5584 263.68 263.68 0 0 1 16.2816 38.2464 432.5376 432.5376 0 0 0 223.7952-91.4944 319.5392 319.5392 0 0 0 15.36-94.3104c0-138.496-89.7024-205.056-89.7024-304.2304-0.0512-122.5728 24.9344-141.8752 24.9344-197.4784z" fill="#FDCB50" p-id="1738"></path><path d="M700.8256 242.4832a454.5024 454.5024 0 0 1 10.24 58.5728h120.4224a454.5024 454.5024 0 0 1 10.24-58.5728zM714.5984 371.8656a169.472 169.472 0 0 1-3.1232 32.1536h119.808a169.472 169.472 0 0 1-3.1744-32.1536c0-9.3696 0-18.1248 0.4608-26.368h-114.3808c0.256 8.2432 0.4096 16.9984 0.4096 26.368z" fill="#FFFFFF" p-id="1739"></path><path d="M867.1744 832.9216H675.84c5.8368 15.36 11.6736 33.3824 15.9744 49.2032h159.6416c4.0448-15.8208 9.8816-33.792 15.7184-49.2032z" fill="#D2DCFD" p-id="1740"></path><path d="M795.0336 832.9216H675.84c3.328 8.8576 6.656 18.5344 9.728 28.16a430.9504 430.9504 0 0 0 109.4656-28.16z" fill="#FFFFFF" p-id="1741"></path><path d="M832.2048 950.2208h-121.6512a29.7472 29.7472 0 0 1-29.1328-24.064c-5.376-27.4944-22.528-77.9776-32.3072-94.8224a343.04 343.04 0 0 1-39.5264-155.2384c0-78.592 27.5968-135.168 51.968-185.088 20.224-41.4208 37.6832-77.2096 37.6832-119.1424 0-71.3728-8.6528-106.752-15.36-135.2192a239.9232 239.9232 0 0 1-9.3184-62.2592c0-71.68 38.4512-99.9424 61.44-110.4896a84.992 84.992 0 0 1 71.2704 0c22.9376 10.5472 61.44 38.9632 61.44 110.4896a239.9232 239.9232 0 0 1-9.3184 62.2592c-6.9632 28.4672-15.6672 63.8464-15.6672 135.2192 0 41.9328 17.5104 77.7216 37.7344 119.1424 24.32 49.92 51.968 106.496 51.968 185.088a343.04 343.04 0 0 1-39.5264 155.2384c-9.7792 16.8448-26.9312 67.328-32.3072 94.8224a29.7472 29.7472 0 0 1-29.3888 24.064z m-120.7808-30.72h119.9104c6.1952-31.1296 24.4224-84.0192 35.84-103.5776a314.624 314.624 0 0 0 35.3792-139.8272c0-71.68-24.832-122.368-48.896-171.6224-20.9408-42.9568-40.96-83.5584-40.96-132.608 0-75.0592 9.1648-112.64 16.5376-142.5408a212.8896 212.8896 0 0 0 8.448-54.9376c0-41.5232-14.6432-69.2736-43.5712-82.5856a54.1184 54.1184 0 0 0-45.568 0c-28.928 13.312-43.5712 40.96-43.5712 82.5856a210.688 210.688 0 0 0 8.448 54.9376c7.3216 30.0544 16.4864 67.4816 16.4864 142.5408 0 49.0496-19.8144 89.6512-40.96 132.608-24.064 49.2544-48.896 100.1472-48.896 171.6224a314.624 314.624 0 0 0 35.7888 139.8272c11.1616 19.5584 29.3888 72.448 35.84 103.5776z" fill="#042A76" p-id="1742"></path><path d="M521.6768 610.2528m-56.7296 0a56.7296 56.7296 0 1 0 113.4592 0 56.7296 56.7296 0 1 0-113.4592 0Z" fill="#FFFFFF" p-id="1743"></path><path d="M526.1824 444.5184m-34.048 0a34.048 34.048 0 1 0 68.096 0 34.048 34.048 0 1 0-68.096 0Z" fill="#FFFFFF" p-id="1744"></path><path d="M371.8144 484.2496m-47.6672 0a47.6672 47.6672 0 1 0 95.3344 0 47.6672 47.6672 0 1 0-95.3344 0Z" fill="#FFFFFF" p-id="1745"></path></svg>