<?xml version="1.0" standalone="no"?><!DOCTYPE svg PUBLIC "-//W3C//DTD SVG 1.1//EN" "http://www.w3.org/Graphics/SVG/1.1/DTD/svg11.dtd"><svg t="1763130398756" class="icon" viewBox="0 0 1024 1024" version="1.1" xmlns="http://www.w3.org/2000/svg" p-id="15953" xmlns:xlink="http://www.w3.org/1999/xlink" width="200" height="200"><path d="M836.474197 701.898271a158.949788 158.949788 0 0 0-119.12237 51.103857L344.389645 535.990681a102.447637 102.447637 0 0 0 0-51.103856l372.962182-215.931787a160.989144 160.989144 0 0 0 119.12237 52.423439A159.189712 159.189712 0 0 0 997.103454 161.708916a160.989144 160.989144 0 1 0-321.978287 0 209.81372 209.81372 0 0 0 2.519204 30.230451L307.561279 404.152329a160.869182 160.869182 0 1 0-119.962104 266.675757 165.067855 165.067855 0 0 0 119.962104-53.982946l370.083092 214.132356a209.453834 209.453834 0 0 0-2.759129 31.190147 160.989144 160.989144 0 1 0 161.588955-160.149409z" fill="#ffffff" p-id="15954"></path></svg>