<?xml version="1.0" standalone="no"?><!DOCTYPE svg PUBLIC "-//W3C//DTD SVG 1.1//EN" "http://www.w3.org/Graphics/SVG/1.1/DTD/svg11.dtd"><svg t="1761205231976" class="icon" viewBox="0 0 1045 1024" version="1.1" xmlns="http://www.w3.org/2000/svg" p-id="33641" xmlns:xlink="http://www.w3.org/1999/xlink" width="204.1015625" height="200"><path d="M239.881156 868.223517a68.015084 68.015084 0 0 1-35.835904-10.23883 64.358359 64.358359 0 0 1-30.71649-62.895669l27.79111-230.373671L22.671695 411.864244a65.089704 65.089704 0 0 1 31.447834-113.358473l232.567707-45.34339L381.030739 39.609645A66.552394 66.552394 0 0 1 470.986173 6.69912a62.895669 62.895669 0 0 1 29.985145 27.059765l116.283853 201.851217 236.224431 21.940349a66.552394 66.552394 0 0 1 57.044909 41.686665 65.089704 65.089704 0 0 1-13.895554 68.015084l-160.895898 170.403382 51.925494 225.985602a63.627014 63.627014 0 0 1-22.671694 65.089704 68.015084 68.015084 0 0 1-73.134499 8.77614l-213.552737-96.537539-204.045252 118.477888a68.746429 68.746429 0 0 1-34.373215 8.77614z m-146.268997-498.777282L258.896126 512.058508a64.358359 64.358359 0 0 1 22.671695 57.044909l-25.597075 212.090047 187.955662-109.701749a73.134499 73.134499 0 0 1 62.164324 0l198.925838 89.224089L658.21049 547.894412a61.432979 61.432979 0 0 1 16.08959-58.507599l146.268998-157.239173-219.403497-19.014969a68.746429 68.746429 0 0 1-52.656839-33.64187L443.926408 92.997829 357.6277 292.655011a65.821049 65.821049 0 0 1-48.26877 38.029939zM554.359502 1024a40.223974 40.223974 0 0 1-27.79111-11.70152l-94.343503-95.074848a38.029939 38.029939 0 0 1 0-54.11953 40.223974 40.223974 0 0 1 56.313564 0L585.075991 954.522226a38.029939 38.029939 0 0 1 0 54.119529 40.223974 40.223974 0 0 1-30.716489 15.358245z m374.448634-17.55228a39.492629 39.492629 0 0 1-27.791109-10.970175L804.479488 899.671352a38.761284 38.761284 0 0 1 0-54.119529 40.223974 40.223974 0 0 1 56.313564 0l95.074849 92.149468a38.761284 38.761284 0 0 1 0 54.119529 42.418009 42.418009 0 0 1-27.059765 11.70152z m73.134499-308.627585a39.492629 39.492629 0 0 1-27.791109-10.970175l-95.074849-92.880814a38.761284 38.761284 0 0 1 0-54.119529 40.223974 40.223974 0 0 1 56.313564 0l95.074849 92.149469a38.029939 38.029939 0 0 1 0 54.119529 40.955319 40.955319 0 0 1-28.522455 10.970175z" fill="#DDDDDD" p-id="33642"></path></svg>