<?xml version="1.0" standalone="no"?><!DOCTYPE svg PUBLIC "-//W3C//DTD SVG 1.1//EN" "http://www.w3.org/Graphics/SVG/1.1/DTD/svg11.dtd"><svg t="1763132733703" class="icon" viewBox="0 0 1024 1024" version="1.1" xmlns="http://www.w3.org/2000/svg" p-id="1357" xmlns:xlink="http://www.w3.org/1999/xlink" width="200" height="200"><path d="M189.22 138.41l337.59-71.97c60.78-12.96 120.56 25.81 133.52 86.6a112.81 112.81 0 0 1 2.47 23.46v648.67c0 62.15-50.38 112.53-112.53 112.53H212.68c-62.15 0-112.53-50.38-112.53-112.53v-576.7c0-53.11 37.13-98.99 89.07-110.06z" fill="#FFAD5D" p-id="1358"></path><path d="M212.68 262.51h112.53c10.36 0 18.76 8.4 18.76 18.76V393.8c0 10.36-8.4 18.76-18.76 18.76H212.68c-10.36 0-18.76-8.4-18.76-18.76V281.27c0.01-10.36 8.4-18.76 18.76-18.76zM212.68 450.07h112.53c10.36 0 18.76 8.4 18.76 18.76v112.53c0 10.36-8.4 18.76-18.76 18.76H212.68c-10.36 0-18.76-8.4-18.76-18.76V468.82c0.01-10.36 8.4-18.75 18.76-18.75z" fill="#FFFFFF" p-id="1359"></path><path d="M862.37 472.31l-281.33-45.63c-40.9-6.63-79.43 21.14-86.06 62.04-0.64 3.97-0.97 7.99-0.97 12.01v361.96c0 41.43 33.59 75.02 75.02 75.02h281.33c41.43 0 75.02-33.59 75.02-75.02V546.36c0-36.8-26.69-68.16-63.01-74.05z" fill="#FFDF88" p-id="1360"></path><path d="M723.48 547.22h82.71c7.61 0 13.79 6.17 13.79 13.79v82.71c0 7.61-6.17 13.79-13.79 13.79h-82.71c-7.61 0-13.79-6.17-13.79-13.79v-82.71c0.01-7.62 6.18-13.79 13.79-13.79zM723.48 685.07h82.71c7.61 0 13.79 6.17 13.79 13.79v82.71c0 7.61-6.17 13.79-13.79 13.79h-82.71c-7.61 0-13.79-6.17-13.79-13.79v-82.71c0.01-7.61 6.18-13.79 13.79-13.79z" fill="#FFFFFF" p-id="1361"></path></svg>