<?xml version="1.0" standalone="no"?><!DOCTYPE svg PUBLIC "-//W3C//DTD SVG 1.1//EN" "http://www.w3.org/Graphics/SVG/1.1/DTD/svg11.dtd"><svg t="1763130416699" class="icon" viewBox="0 0 1024 1024" version="1.1" xmlns="http://www.w3.org/2000/svg" p-id="17118" xmlns:xlink="http://www.w3.org/1999/xlink" width="200" height="200"><path d="M512.256 68.608A445.1328 445.1328 0 1 0 957.44 513.7408a445.44 445.44 0 0 0-445.184-445.1328z m0 839.0656A393.9328 393.9328 0 1 1 906.24 513.7408a394.24 394.24 0 0 1-393.984 393.9328z" fill="#ffffff" p-id="17119"></path><path d="M688.5888 345.2928h-43.8784l13.9776-22.7328a20.48 20.48 0 0 0-34.9184-21.4016l-26.112 42.5984c-0.3072 0.512-0.512 1.0752-0.768 1.5872h-62.0032V300.544a20.48 20.48 0 0 0-40.96 0v44.7488H441.5488a2.8672 2.8672 0 0 0 0-0.4096l-29.7472-41.984a20.48 20.48 0 1 0-33.3824 23.7056l13.2608 18.688h-44.8512a20.48 20.48 0 0 0-20.48 20.48v62.9248a20.48 20.48 0 0 0 40.96 0v-42.4448h300.8v44.4416a20.48 20.48 0 0 0 40.96 0V365.7728a20.48 20.48 0 0 0-20.48-20.48z" fill="#ffffff" p-id="17120"></path><path d="M601.2416 511.4368a20.48 20.48 0 0 0 20.48-20.48V427.8784a20.48 20.48 0 0 0-20.48-20.48H425.216a20.48 20.48 0 0 0-20.48 20.48v63.0784a20.48 20.48 0 0 0 20.48 20.48zM445.696 448.3584h135.0656v22.1184H445.696zM379.6992 552.2432v81.152a20.48 20.48 0 1 0 40.96 0v-60.672h185.8048v60.672a20.48 20.48 0 0 0 40.96 0v-81.152a20.48 20.48 0 0 0-20.48-20.48H400.1792a20.48 20.48 0 0 0-20.48 20.48z" fill="#ffffff" p-id="17121"></path><path d="M669.44 674.2016L550.5536 629.76a20.48 20.48 0 0 0-21.4528 4.6592 65.28 65.28 0 0 0 5.12-33.6896l-40.3968 6.7584v-0.6144a33.6384 33.6384 0 0 1-9.5232 23.1424c-11.52 13.6192-44.0832 37.376-133.12 43.4176a20.48 20.48 0 0 0 1.3824 40.96h1.3824c81.3056-5.5296 136.2944-25.6 163.4816-60.2624a92.16 92.16 0 0 0 5.7344-8.192 20.48 20.48 0 0 0 13.056 22.3232l119.1424 44.3392a20.48 20.48 0 1 0 14.2848-38.4z" fill="#ffffff" p-id="17122"></path></svg>