<?xml version="1.0" standalone="no"?><!DOCTYPE svg PUBLIC "-//W3C//DTD SVG 1.1//EN" "http://www.w3.org/Graphics/SVG/1.1/DTD/svg11.dtd"><svg t="1762739605486" class="icon" viewBox="0 0 1024 1024" version="1.1" xmlns="http://www.w3.org/2000/svg" p-id="10387" xmlns:xlink="http://www.w3.org/1999/xlink" width="200" height="200"><path d="M897.258667 34.133333C943.6928 34.133333 981.333333 71.773867 981.333333 118.208v791.850667c0 46.434133-37.640533 84.074667-84.074666 84.074666H126.741333C80.3072 994.133333 42.666667 956.4928 42.666667 910.058667V118.208C42.666667 71.773867 80.3072 34.133333 126.741333 34.133333h770.517334z m0 59.349334H126.741333a24.7296 24.7296 0 0 0-24.712533 23.773866l-0.017067 0.951467v791.850667a24.7296 24.7296 0 0 0 23.778134 24.712533l0.951466 0.017067h770.517334a24.7296 24.7296 0 0 0 24.712533-23.778134l0.017067-0.951466V118.208a24.7296 24.7296 0 0 0-23.778134-24.712533l-0.951466-0.017067z" fill="#ffffff" p-id="10388"></path><path d="M719.496533 244.416v59.349333H304.503467v-59.349333z" fill="#ffffff" p-id="10389"></path><path d="M537.2544 276.650667v500.219733h-59.349333V276.6464z" fill="#ffffff" p-id="10390"></path></svg>