<?xml version="1.0" standalone="no"?><!DOCTYPE svg PUBLIC "-//W3C//DTD SVG 1.1//EN" "http://www.w3.org/Graphics/SVG/1.1/DTD/svg11.dtd"><svg t="1763102301439" class="icon" viewBox="0 0 1024 1024" version="1.1" xmlns="http://www.w3.org/2000/svg" p-id="7797" xmlns:xlink="http://www.w3.org/1999/xlink" width="200" height="200"><path d="M273.8628125 483.100625c0 0 0 0 0 0 0 26.454375 21.44625 47.900625 47.900625 47.900625 26.454375 0 47.900625-21.44625 47.900625-47.900625 0 0 0 0 0 0 0 0 0 0 0 0 0-26.454375-21.44625-47.900625-47.900625-47.900625-26.454375 0-47.900625 21.44625-47.900625 47.900625s0 0 0 0z" fill="#ffffff" p-id="7798"></path><path d="M463.1890625 483.100625c0 0 0 0 0 0 0 26.454375 21.44625 47.900625 47.900625 47.900625 26.454375 0 47.900625-21.44625 47.900625-47.900625 0 0 0 0 0 0 0 0 0 0 0 0 0-26.454375-21.44625-47.900625-47.900625-47.900625-26.454375 0-47.900625 21.44625-47.900625 47.900625s0 0 0 0z" fill="#ffffff" p-id="7799"></path><path d="M652.5153125 483.100625c0 26.454375 21.44625 47.900625 47.900625 47.900625s47.900625-21.44625 47.900625-47.900625c0-26.454375-21.44625-47.900625-47.900625-47.900625-26.454375 0-47.900625 21.44625-47.900625 47.900625z" fill="#ffffff" p-id="7800"></path><path d="M867.783125 348.843125c-19.6828125-40.7334375-47.6728125-77.3690625-83.3990625-108.658125-72.7040625-63.82875-169.074375-98.8734375-271.3603125-98.8734375-102.4003125 0-198.7696875 35.1571875-271.3603125 98.8734375-35.72625 31.2890625-63.7153125 67.81125-83.3990625 108.658125-20.4796875 42.553125-30.834375 87.7228125-30.834375 134.2584375 0 54.613125 14.9053125 108.885 43.0078125 157.126875 24.575625 42.0984375 59.3915625 79.7578125 101.14875 109.5684375v113.20875c0 9.7846875 5.2340625 18.7734375 13.6528125 23.66625 4.2103125 2.38875 8.98875 3.64125 13.6528125 3.64125s9.4434375-1.250625 13.6528125-3.64125l119.8078125-69.1771875c26.3971875 5.00625 53.589375 7.509375 80.6690625 7.509375 102.4003125 0 198.7696875-35.1571875 271.3603125-98.8734375 35.72625-31.2890625 63.7153125-67.81125 83.3990625-108.658125 20.4796875-42.553125 30.834375-87.7228125 30.834375-134.2584375 0.114375-46.6490625-10.35375-91.81875-30.834375-134.3709375zM513.02375 770.3890625c-26.8509375 0-53.7028125-2.8453125-79.6453125-8.41875-6.5990625-1.365-13.539375-0.34125-19.3415625 3.0721875l-87.8371875 50.745v-80.326875c0-9.215625-4.665-17.74875-12.2878125-22.869375-83.85375-54.9553125-131.9821875-138.58125-131.9821875-229.4896875 0-158.379375 148.4803125-287.175 331.093125-287.175 182.499375 0 331.093125 128.7965625 331.093125 287.175s-148.59375 287.289375-331.093125 287.289375z" fill="#ffffff" p-id="7801"></path></svg>