<?xml version="1.0" standalone="no"?><!DOCTYPE svg PUBLIC "-//W3C//DTD SVG 1.1//EN" "http://www.w3.org/Graphics/SVG/1.1/DTD/svg11.dtd"><svg t="1763103067169" class="icon" viewBox="0 0 1024 1024" version="1.1" xmlns="http://www.w3.org/2000/svg" p-id="2731" xmlns:xlink="http://www.w3.org/1999/xlink" width="200" height="200"><path d="M512 0C229.220174 0 0 219.269565 0 489.73913c0 158.074435 78.625391 298.22887 200.125217 387.784348L200.125217 1024l194.381913-57.989565C432.306087 974.514087 471.507478 979.478261 512 979.478261c282.779826 0 512-219.269565 512-489.73913S794.757565 0 512 0zM512 934.956522c-34.949565 0-71.190261-4.162783-107.720348-12.377043l-11.353043-2.56-11.152696 3.31687-137.126957 40.915478L244.646957 877.523478l0-22.483478-18.098087-13.356522C110.85913 756.424348 44.521739 628.157217 44.521739 489.73913c0-245.49287 209.697391-445.217391 467.478261-445.217391 257.758609 0 467.478261 199.724522 467.478261 445.217391S769.758609 934.956522 512 934.956522z" fill="#ffffff" p-id="2732"></path><path d="M289.391304 489.73913m-44.521739 0a2 2 0 1 0 89.043478 0 2 2 0 1 0-89.043478 0Z" fill="#ffffff" p-id="2733"></path><path d="M512 489.73913m-44.521739 0a2 2 0 1 0 89.043478 0 2 2 0 1 0-89.043478 0Z" fill="#ffffff" p-id="2734"></path><path d="M734.608696 489.73913m-44.521739 0a2 2 0 1 0 89.043478 0 2 2 0 1 0-89.043478 0Z" fill="#ffffff" p-id="2735"></path></svg>