<?xml version="1.0" standalone="no"?><!DOCTYPE svg PUBLIC "-//W3C//DTD SVG 1.1//EN" "http://www.w3.org/Graphics/SVG/1.1/DTD/svg11.dtd"><svg t="1763132727175" class="icon" viewBox="0 0 1024 1024" version="1.1" xmlns="http://www.w3.org/2000/svg" p-id="1182" xmlns:xlink="http://www.w3.org/1999/xlink" width="200" height="200"><path d="M219.91 273.7h586.85c43.21 0 78.25 35.03 78.25 78.25v528.17c0 43.21-35.03 78.25-78.25 78.25H219.91c-43.21 0-78.25-35.03-78.25-78.25V351.95c0.01-43.22 35.04-78.25 78.25-78.25z" fill="#98A4FF" p-id="1183"></path><path d="M161.23 58.52h704.22c43.21 0 78.25 35.03 78.25 78.25v156.49c0 43.21-35.03 78.25-78.25 78.25H161.23c-43.21 0-78.25-35.03-78.25-78.25V136.77c0-43.22 35.03-78.25 78.25-78.25zM141.67 637.27v259.97c3.85 40.74 29.39 61.11 76.62 61.11h594.82c47.94-12.43 71.9-34.41 71.9-65.93V708.64c-25.21 43.2-85.39 64.81-180.53 64.81-142.71 0-191.15-104.36-302.4-136.18-74.17-21.21-160.97-21.21-260.41 0z" fill="#A378EE" p-id="1184"></path><path d="M513.34 430.19c97.23 0 176.06 78.82 176.06 176.06S610.57 782.3 513.34 782.3s-176.06-78.82-176.06-176.06 78.83-176.05 176.06-176.05z m0 58.69c-64.82 0-117.37 52.55-117.37 117.37s52.55 117.37 117.37 117.37 117.37-52.55 117.37-117.37-52.55-117.37-117.37-117.37zM669.83 117.2h39.12c10.8 0 19.56 8.76 19.56 19.56v39.12c0 10.8-8.76 19.56-19.56 19.56h-39.12c-10.8 0-19.56-8.76-19.56-19.56v-39.12c0-10.8 8.76-19.56 19.56-19.56zM787.2 117.2h39.12c10.8 0 19.56 8.76 19.56 19.56v39.12c0 10.8-8.76 19.56-19.56 19.56H787.2c-10.8 0-19.56-8.76-19.56-19.56v-39.12c0-10.8 8.76-19.56 19.56-19.56z" fill="#FFFFFF" p-id="1185"></path></svg>