<?xml version="1.0" standalone="no"?><!DOCTYPE svg PUBLIC "-//W3C//DTD SVG 1.1//EN" "http://www.w3.org/Graphics/SVG/1.1/DTD/svg11.dtd"><svg t="1762748427547" class="icon" viewBox="0 0 1024 1024" version="1.1" xmlns="http://www.w3.org/2000/svg" p-id="12315" xmlns:xlink="http://www.w3.org/1999/xlink" width="200" height="200"><path d="M0 0m53.857887 0l323.14732 0q53.857887 0 53.857887 53.857887l0 323.14732q0 53.857887-53.857887 53.857887l-323.14732 0q-53.857887 0-53.857887-53.857887l0-323.14732q0-53.857887 53.857887-53.857887Z" fill="#ffffff" p-id="12316"></path><path d="M538.578867 0m53.857887 0l323.14732 0q53.857887 0 53.857887 53.857887l0 323.14732q0 53.857887-53.857887 53.857887l-323.14732 0q-53.857887 0-53.857887-53.857887l0-323.14732q0-53.857887 53.857887-53.857887Z" fill="#ffffff" p-id="12317"></path><path d="M0 538.578867m53.857887 0l323.14732 0q53.857887 0 53.857887 53.857887l0 323.14732q0 53.857887-53.857887 53.857887l-323.14732 0q-53.857887 0-53.857887-53.857887l0-323.14732q0-53.857887 53.857887-53.857887Z" fill="#ffffff" p-id="12318"></path><path d="M754.279703 623.135749l-131.197812 131.197812 131.197812 131.197812 131.197812-131.197812-131.197812-131.197812m0-138.468627a33.338032 33.338032 0 0 1 23.643613 9.802136l236.274549 236.274549a33.39189 33.39189 0 0 1 0 47.233367l-236.274549 236.274549a33.39189 33.39189 0 0 1-47.233367 0l-236.274549-236.274549a33.39189 33.39189 0 0 1 0-47.233367l236.274549-236.274549a33.338032 33.338032 0 0 1 23.589754-9.748278z" fill="#ffffff" p-id="12319"></path></svg>